<svg id="kity_svg_6" xmlns="http://www.w3.org/2000/svg" xmlns:xlink="http://www.w3.org/1999/xlink" version="1.1" width="939" height="612" style="background: rgb(251, 251, 251); visibility: visible;" viewBox="0 0 939 612"><defs id="kity_defs_7"><linearGradient id="kity_linearGradient_17" x1="0" y1="0" x2="0" y2="1"><stop id="kity_stop_18" offset="0" stop-color="rgb(255, 255, 255)"></stop><stop id="kity_stop_19" offset="1" stop-color="rgb(204, 204, 204)"></stop></linearGradient><marker id="kity_marker_2" orient="auto" refX="6" refY="0" viewBox="-7 -7 14 14" markerWidth="7" markerHeight="7" markerUnits="userSpaceOnUse"><path id="kity_path_3" fill="rgb(115, 161, 191)" stroke="none" d="M6,0A6,6,0,1,1,-6,0A6,6,0,1,1,6,0"></path></marker></defs><g id="kity_g_8"><g id="minder1" text-rendering="optimize-speed"><g id="minder_connect_group1"><path id="kity_path_31" fill="none" stroke="rgb(115, 161, 191)" stroke-width="1" d="M93,388.5A88.5,190,0,0,1,181.5,198.5"></path><path id="kity_path_33" fill="none" stroke="rgb(115, 161, 191)" stroke-width="1" d="M279.5,198.5C287.5,198.5,287.5,107.5,295.5,107.5"></path><path id="kity_path_35" fill="none" stroke="rgb(115, 161, 191)" stroke-width="1" d="M329.5,107.5C337.5,107.5,337.5,107.5,345.5,107.5"></path><path id="kity_path_37" fill="none" stroke="rgb(115, 161, 191)" stroke-width="1" d="M488.5,107.5C496.5,107.5,496.5,29.5,504.5,29.5"></path><path id="kity_path_39" fill="none" stroke="rgb(115, 161, 191)" stroke-width="1" d="M488.5,107.5C496.5,107.5,496.5,55.5,504.5,55.5"></path><path id="kity_path_41" fill="none" stroke="rgb(115, 161, 191)" stroke-width="1" d="M488.5,107.5C496.5,107.5,496.5,81.5,504.5,81.5"></path><path id="kity_path_43" fill="none" stroke="rgb(115, 161, 191)" stroke-width="1" d="M488.5,107.5C496.5,107.5,496.5,107.5,504.5,107.5"></path><path id="kity_path_45" fill="none" stroke="rgb(115, 161, 191)" stroke-width="1" d="M488.5,107.5C496.5,107.5,496.5,133.5,504.5,133.5"></path><path id="kity_path_47" fill="none" stroke="rgb(115, 161, 191)" stroke-width="1" d="M488.5,107.5C496.5,107.5,496.5,159.5,504.5,159.5"></path><path id="kity_path_49" fill="none" stroke="rgb(115, 161, 191)" stroke-width="1" d="M488.5,107.5C496.5,107.5,496.5,185.5,504.5,185.5"></path><path id="kity_path_51" fill="none" stroke="rgb(115, 161, 191)" stroke-width="1" d="M279.5,198.5C287.5,198.5,287.5,211.5,295.5,211.5"></path><path id="kity_path_53" fill="none" stroke="rgb(115, 161, 191)" stroke-width="1" d="M329.5,211.5C337.5,211.5,337.5,211.5,345.5,211.5"></path><path id="kity_path_55" fill="none" stroke="rgb(115, 161, 191)" stroke-width="1" d="M279.5,198.5C287.5,198.5,287.5,237.5,295.5,237.5"></path><path id="kity_path_57" fill="none" stroke="rgb(115, 161, 191)" stroke-width="1" d="M329.5,237.5C337.5,237.5,337.5,237.5,345.5,237.5"></path><path id="kity_path_59" fill="none" stroke="rgb(115, 161, 191)" stroke-width="1" d="M279.5,198.5C287.5,198.5,287.5,263.5,295.5,263.5"></path><path id="kity_path_61" fill="none" stroke="rgb(115, 161, 191)" stroke-width="1" d="M353.5,263.5C361.5,263.5,361.5,263.5,369.5,263.5"></path><path id="kity_path_63" fill="none" stroke="rgb(115, 161, 191)" stroke-width="1" d="M279.5,198.5C287.5,198.5,287.5,289.5,295.5,289.5"></path><path id="kity_path_65" fill="none" stroke="rgb(115, 161, 191)" stroke-width="1" d="M329.5,289.5C337.5,289.5,337.5,289.5,345.5,289.5"></path><path id="kity_path_67" fill="none" stroke="rgb(115, 161, 191)" stroke-width="1" d="M439.5,289.5C447.5,289.5,447.5,289.5,455.5,289.5"></path><path id="kity_path_69" fill="none" stroke="rgb(115, 161, 191)" stroke-width="1" d="M658.5,289.5C666.5,289.5,666.5,289.5,674.5,289.5"></path><path id="kity_path_71" fill="none" stroke="rgb(115, 161, 191)" stroke-width="1" d="M93,388.5A88.5,18,0,0,0,181.5,406.5"></path><path id="kity_path_73" fill="none" stroke="rgb(115, 161, 191)" stroke-width="1" d="M308.5,406.5C316.5,406.5,316.5,335.5,324.5,335.5"></path><path id="kity_path_75" fill="none" stroke="rgb(115, 161, 191)" stroke-width="1" d="M527.5,335.5C535.5,335.5,535.5,322.5,543.5,322.5"></path><path id="kity_path_77" fill="none" stroke="rgb(115, 161, 191)" stroke-width="1" d="M527.5,335.5C535.5,335.5,535.5,348.5,543.5,348.5"></path><path id="kity_path_79" fill="none" stroke="rgb(115, 161, 191)" stroke-width="1" d="M308.5,406.5C316.5,406.5,316.5,374.5,324.5,374.5"></path><path id="kity_path_81" fill="none" stroke="rgb(115, 161, 191)" stroke-width="1" d="M308.5,406.5C316.5,406.5,316.5,477.5,324.5,477.5"></path><path id="kity_path_83" fill="none" stroke="rgb(115, 161, 191)" stroke-width="1" d="M358.5,477.5C366.5,477.5,366.5,414.5,374.5,414.5"></path><path id="kity_path_85" fill="none" stroke="rgb(115, 161, 191)" stroke-width="1" d="M447.5,414.5C455.5,414.5,455.5,401.5,463.5,401.5"></path><path id="kity_path_87" fill="none" stroke="rgb(115, 161, 191)" stroke-width="1" d="M447.5,414.5C455.5,414.5,455.5,427.5,463.5,427.5"></path><path id="kity_path_89" fill="none" stroke="rgb(115, 161, 191)" stroke-width="1" d="M664.5,427.5C672.5,427.5,672.5,427.5,680.5,427.5"></path><path id="kity_path_91" fill="none" stroke="rgb(115, 161, 191)" stroke-width="1" d="M358.5,477.5C366.5,477.5,366.5,453.5,374.5,453.5"></path><path id="kity_path_93" fill="none" stroke="rgb(115, 161, 191)" stroke-width="1" d="M444.5,453.5C452.5,453.5,452.5,453.5,460.5,453.5"></path><path id="kity_path_95" fill="none" stroke="rgb(115, 161, 191)" stroke-width="1" d="M630.5,453.5C638.5,453.5,638.5,453.5,646.5,453.5"></path><path id="kity_path_97" fill="none" stroke="rgb(115, 161, 191)" stroke-width="1" d="M358.5,477.5C366.5,477.5,366.5,515.5,374.5,515.5"></path><path id="kity_path_314" fill="none" stroke="rgb(115, 161, 191)" stroke-width="1" d="M358.5,477.5C366.5,477.5,366.5,484.5,374.5,484.5"></path><path id="kity_path_322" fill="none" stroke="rgb(115, 161, 191)" stroke-width="1" d="M453.5,484.5C461.5,484.5,461.5,484.5,469.5,484.5"></path><path id="kity_path_333" fill="none" stroke="rgb(115, 161, 191)" stroke-width="1" d="M358.5,477.5C366.5,477.5,366.5,541.5,374.5,541.5"></path><path id="kity_path_341" fill="none" stroke="rgb(115, 161, 191)" stroke-width="1" d="M93,388.5A88.5,191,0,0,0,181.5,579.5"></path></g><g id="minder_node1"><path id="node_outline1" fill="rgb(115, 161, 191)" stroke="rgb(115, 161, 191)" d="M25.5,371.5h135a5,5,0,0,1,5,5v24a5,5,0,0,1,-5,5h-135a5,5,0,0,1,-5,-5v-24a5,5,0,0,1,5,-5z" stroke-width="3"></path><g id="node_text1" fill="white"><text id="kity_text_22" text-rendering="inherit" font-size="16" dy=".8em" y="380.5" x="32.5">学习Jar文件</text></g><a id="kity_a_166" xmlns:xlink="http://www.w3.org/1999/xlink" xlink:href="https://docs.oracle.com/javase/tutorial/deployment/jar/index.html" target="_blank" xlink:title="官网教程(https://docs.oracle.com/javase/tutorial/deployment/jar/index.html)" style="cursor: pointer;"><path id="kity_path_168" fill="rgba(255, 255, 255, 0)" stroke="none" d="M133.5,377.5h16a4,4,0,0,1,4,4v14a4,4,0,0,1,-4,4h-16a4,4,0,0,1,-4,-4v-14a4,4,0,0,1,4,-4z"></path><path id="kity_path_167" fill="#666" stroke="none" d="M148.114,393.724h-1.278c-1.668,0,-3.07,-1.07,-3.599,-2.556h4.877c0.707,0,1.278,-0.571,1.278,-1.278V387.334c0,-0.707,-0.571,-1.278,-1.278,-1.278h-4.877C143.766,384.571,145.168,383.5,146.836,383.5h1.278c2.116,0,3.834,1.716,3.834,3.834V389.89C151.948,392.008,150.23,393.724,148.114,393.724zM136.612,388.612c0,-0.707,0.573,-1.278,1.278,-1.278h7.668c0.707,0,1.278,0.571,1.278,1.278S146.265,389.89,145.558,389.89H137.89C137.185,389.89,136.612,389.319,136.612,388.612zM134.056,387.334V389.89c0,0.707,0.573,1.278,1.278,1.278h4.877c-0.528,1.486,-1.932,2.556,-3.599,2.556H135.334C133.216,393.724,131.5,392.008,131.5,389.89V387.334C131.5,385.216,133.216,383.5,135.334,383.5h1.278c1.667,0,3.071,1.071,3.599,2.556H135.334C134.629,386.056,134.056,386.627,134.056,387.334z"></path></a></g><g id="kity_g_12"><path id="kity_path_13" fill="none" stroke="none" d="M32.5,388.5h0v0h0z"></path></g><g id="kity_g_14"><path id="kity_path_15" fill="none" stroke="none" d="M32.5,388.5h0v0h0z"></path><path id="kity_path_16" fill="none" stroke="none"></path></g><g id="minder_node2"><g id="node_expander20" style="cursor: pointer;"><path id="kity_path_261" fill="white" stroke="gray" d="M182.5,198.5A6,6,0,1,1,170.5,198.5A6,6,0,1,1,182.5,198.5"></path><path id="kity_path_262" fill="none" stroke="gray" d="M172,198.5L181,198.5"></path></g><path id="node_outline21" fill="rgb(238, 243, 246)" stroke="rgb(115, 161, 191)" d="M186.5,185.5h90a3,3,0,0,1,3,3v20a3,3,0,0,1,-3,3h-90a3,3,0,0,1,-3,-3v-20a3,3,0,0,1,3,-3z" stroke-width="1"></path><g id="node_text21" fill="black"><text id="kity_text_137" text-rendering="inherit" font-size="14" dy=".8em" y="191.5" x="203.5">基本使用</text></g></g><g id="minder_node3"><g id="node_expander9" style="cursor: pointer;"><path id="kity_path_228" fill="white" stroke="gray" d="M295.5,107.5A6,6,0,1,1,283.5,107.5A6,6,0,1,1,295.5,107.5"></path><path id="kity_path_229" fill="none" stroke="gray" d="M285,107.5L294,107.5"></path></g><path id="node_outline10" fill="none" stroke="none" d="M300.5,98.5h24a5,5,0,0,1,5,5v8a5,5,0,0,1,-5,5h-24a5,5,0,0,1,-5,-5v-8a5,5,0,0,1,5,-5z"></path><g id="node_text10" fill="black"><text id="kity_text_115" text-rendering="inherit" font-size="12" dy=".8em" y="101.5" x="300.5">新建</text></g></g><g id="minder_node4"><g id="node_expander8" style="cursor: pointer;"><path id="kity_path_225" fill="white" stroke="gray" d="M345.5,107.5A6,6,0,1,1,333.5,107.5A6,6,0,1,1,345.5,107.5"></path><path id="kity_path_226" fill="none" stroke="gray" d="M335,107.5L344,107.5"></path></g><path id="node_outline9" fill="none" stroke="none" d="M350.5,98.5h133a5,5,0,0,1,5,5v8a5,5,0,0,1,-5,5h-133a5,5,0,0,1,-5,-5v-8a5,5,0,0,1,5,-5z"></path><g id="node_text9" fill="black"><text id="kity_text_113" text-rendering="inherit" font-size="12" dy=".8em" y="101.5" x="350.5">jar cf jar-file input-file(s)</text></g></g><g id="minder_node5"><g id="node_expander1" style="cursor: pointer;" display="none"><path id="kity_path_204" fill="white" stroke="gray" d="M504.5,29.5A6,6,0,1,1,492.5,29.5A6,6,0,1,1,504.5,29.5"></path><path id="kity_path_205" fill="none" stroke="gray"></path></g><path id="node_outline2" fill="none" stroke="none" d="M509.5,20.5h157a5,5,0,0,1,5,5v8a5,5,0,0,1,-5,5h-157a5,5,0,0,1,-5,-5v-8a5,5,0,0,1,5,-5z"></path><g id="node_text2" fill="black"><text id="kity_text_99" text-rendering="inherit" font-size="12" dy=".8em" y="23.5" x="509.5">会默认新建一个manifest文件</text></g></g><g id="minder_node6"><g id="node_expander2" style="cursor: pointer;" display="none"><path id="kity_path_207" fill="white" stroke="gray" d="M504.5,55.5A6,6,0,1,1,492.5,55.5A6,6,0,1,1,504.5,55.5"></path><path id="kity_path_208" fill="none" stroke="gray"></path></g><path id="node_outline3" fill="none" stroke="none" d="M509.5,46.5h35a5,5,0,0,1,5,5v8a5,5,0,0,1,-5,5h-35a5,5,0,0,1,-5,-5v-8a5,5,0,0,1,5,-5z"></path><g id="node_text3" fill="black"><text id="kity_text_101" text-rendering="inherit" font-size="12" dy=".8em" y="49.5" x="509.5">c 新建</text></g></g><g id="minder_node7"><g id="node_expander3" style="cursor: pointer;" display="none"><path id="kity_path_210" fill="white" stroke="gray" d="M504.5,81.5A6,6,0,1,1,492.5,81.5A6,6,0,1,1,504.5,81.5"></path><path id="kity_path_211" fill="none" stroke="gray"></path></g><path id="node_outline4" fill="none" stroke="none" d="M509.5,72.5h199a5,5,0,0,1,5,5v8a5,5,0,0,1,-5,5h-199a5,5,0,0,1,-5,-5v-8a5,5,0,0,1,5,-5z"></path><g id="node_text4" fill="black"><text id="kity_text_103" text-rendering="inherit" font-size="12" dy=".8em" y="75.5" x="509.5">f 输出到指定文件，默认输出到stdout</text></g></g><g id="minder_node8"><g id="node_expander4" style="cursor: pointer;" display="none"><path id="kity_path_213" fill="white" stroke="gray" d="M504.5,107.5A6,6,0,1,1,492.5,107.5A6,6,0,1,1,504.5,107.5"></path><path id="kity_path_214" fill="none" stroke="gray"></path></g><path id="node_outline5" fill="none" stroke="none" d="M509.5,98.5h82a5,5,0,0,1,5,5v8a5,5,0,0,1,-5,5h-82a5,5,0,0,1,-5,-5v-8a5,5,0,0,1,5,-5z"></path><g id="node_text5" fill="black"><text id="kity_text_105" text-rendering="inherit" font-size="12" dy=".8em" y="101.5" x="509.5">v 输出详细信息</text></g></g><g id="minder_node9"><g id="node_expander5" style="cursor: pointer;" display="none"><path id="kity_path_216" fill="white" stroke="gray" d="M504.5,133.5A6,6,0,1,1,492.5,133.5A6,6,0,1,1,504.5,133.5"></path><path id="kity_path_217" fill="none" stroke="gray"></path></g><path id="node_outline6" fill="none" stroke="none" d="M509.5,124.5h70a5,5,0,0,1,5,5v8a5,5,0,0,1,-5,5h-70a5,5,0,0,1,-5,-5v-8a5,5,0,0,1,5,-5z"></path><g id="node_text6" fill="black"><text id="kity_text_107" text-rendering="inherit" font-size="12" dy=".8em" y="127.5" x="509.5">0 不进行压缩</text></g></g><g id="minder_node10"><g id="node_expander6" style="cursor: pointer;" display="none"><path id="kity_path_219" fill="white" stroke="gray" d="M504.5,159.5A6,6,0,1,1,492.5,159.5A6,6,0,1,1,504.5,159.5"></path><path id="kity_path_220" fill="none" stroke="gray"></path></g><path id="node_outline7" fill="none" stroke="none" d="M509.5,150.5h123a5,5,0,0,1,5,5v8a5,5,0,0,1,-5,5h-123a5,5,0,0,1,-5,-5v-8a5,5,0,0,1,5,-5z"></path><g id="node_text7" fill="black"><text id="kity_text_109" text-rendering="inherit" font-size="12" dy=".8em" y="153.5" x="509.5">M 不生成manifest文件</text></g></g><g id="minder_node11"><g id="node_expander7" style="cursor: pointer;" display="none"><path id="kity_path_222" fill="white" stroke="gray" d="M504.5,185.5A6,6,0,1,1,492.5,185.5A6,6,0,1,1,504.5,185.5"></path><path id="kity_path_223" fill="none" stroke="gray"></path></g><path id="node_outline8" fill="none" stroke="none" d="M509.5,176.5h184a5,5,0,0,1,5,5v8a5,5,0,0,1,-5,5h-184a5,5,0,0,1,-5,-5v-8a5,5,0,0,1,5,-5z"></path><g id="node_text8" fill="black"><text id="kity_text_111" text-rendering="inherit" font-size="12" dy=".8em" y="179.5" x="509.5">m 指定需要被包含的manifest文件</text></g></g><g id="minder_node12"><g id="node_expander11" style="cursor: pointer;"><path id="kity_path_234" fill="white" stroke="gray" d="M295.5,211.5A6,6,0,1,1,283.5,211.5A6,6,0,1,1,295.5,211.5"></path><path id="kity_path_235" fill="none" stroke="gray" d="M285,211.5L294,211.5"></path></g><path id="node_outline12" fill="none" stroke="none" d="M300.5,202.5h24a5,5,0,0,1,5,5v8a5,5,0,0,1,-5,5h-24a5,5,0,0,1,-5,-5v-8a5,5,0,0,1,5,-5z"></path><g id="node_text12" fill="black"><text id="kity_text_119" text-rendering="inherit" font-size="12" dy=".8em" y="205.5" x="300.5">查看</text></g></g><g id="minder_node13"><g id="node_expander10" style="cursor: pointer;" display="none"><path id="kity_path_231" fill="white" stroke="gray" d="M345.5,211.5A6,6,0,1,1,333.5,211.5A6,6,0,1,1,345.5,211.5"></path><path id="kity_path_232" fill="none" stroke="gray"></path></g><path id="node_outline11" fill="none" stroke="none" d="M350.5,202.5h63a5,5,0,0,1,5,5v8a5,5,0,0,1,-5,5h-63a5,5,0,0,1,-5,-5v-8a5,5,0,0,1,5,-5z"></path><g id="node_text11" fill="black"><text id="kity_text_117" text-rendering="inherit" font-size="12" dy=".8em" y="205.5" x="350.5">jar tf jar-file</text></g></g><g id="minder_node14"><g id="node_expander13" style="cursor: pointer;"><path id="kity_path_240" fill="white" stroke="gray" d="M295.5,237.5A6,6,0,1,1,283.5,237.5A6,6,0,1,1,295.5,237.5"></path><path id="kity_path_241" fill="none" stroke="gray" d="M285,237.5L294,237.5"></path></g><path id="node_outline14" fill="none" stroke="none" d="M300.5,228.5h24a5,5,0,0,1,5,5v8a5,5,0,0,1,-5,5h-24a5,5,0,0,1,-5,-5v-8a5,5,0,0,1,5,-5z"></path><g id="node_text14" fill="black"><text id="kity_text_123" text-rendering="inherit" font-size="12" dy=".8em" y="231.5" x="300.5">解压</text></g></g><g id="minder_node15"><g id="node_expander12" style="cursor: pointer;" display="none"><path id="kity_path_237" fill="white" stroke="gray" d="M345.5,237.5A6,6,0,1,1,333.5,237.5A6,6,0,1,1,345.5,237.5"></path><path id="kity_path_238" fill="none" stroke="gray"></path></g><path id="node_outline13" fill="none" stroke="none" d="M350.5,228.5h162a5,5,0,0,1,5,5v8a5,5,0,0,1,-5,5h-162a5,5,0,0,1,-5,-5v-8a5,5,0,0,1,5,-5z"></path><g id="node_text13" fill="black"><text id="kity_text_121" text-rendering="inherit" font-size="12" dy=".8em" y="231.5" x="350.5">jar xf jar-file [archived-file(s)]</text></g></g><g id="minder_node16"><g id="node_expander15" style="cursor: pointer;"><path id="kity_path_246" fill="white" stroke="gray" d="M295.5,263.5A6,6,0,1,1,283.5,263.5A6,6,0,1,1,295.5,263.5"></path><path id="kity_path_247" fill="none" stroke="gray" d="M285,263.5L294,263.5"></path></g><path id="node_outline16" fill="none" stroke="none" d="M300.5,254.5h48a5,5,0,0,1,5,5v8a5,5,0,0,1,-5,5h-48a5,5,0,0,1,-5,-5v-8a5,5,0,0,1,5,-5z"></path><g id="node_text16" fill="black"><text id="kity_text_127" text-rendering="inherit" font-size="12" dy=".8em" y="257.5" x="300.5">添加文件</text></g></g><g id="minder_node17"><g id="node_expander14" style="cursor: pointer;" display="none"><path id="kity_path_243" fill="white" stroke="gray" d="M369.5,263.5A6,6,0,1,1,357.5,263.5A6,6,0,1,1,369.5,263.5"></path><path id="kity_path_244" fill="none" stroke="gray"></path></g><path id="node_outline15" fill="none" stroke="none" d="M374.5,254.5h132a5,5,0,0,1,5,5v8a5,5,0,0,1,-5,5h-132a5,5,0,0,1,-5,-5v-8a5,5,0,0,1,5,-5z"></path><g id="node_text15" fill="black"><text id="kity_text_125" text-rendering="inherit" font-size="12" dy=".8em" y="257.5" x="374.5">jar uf jar-file input-file(s)</text></g></g><g id="minder_node18"><g id="node_expander19" style="cursor: pointer;"><path id="kity_path_258" fill="white" stroke="gray" d="M295.5,289.5A6,6,0,1,1,283.5,289.5A6,6,0,1,1,295.5,289.5"></path><path id="kity_path_259" fill="none" stroke="gray" d="M285,289.5L294,289.5"></path></g><path id="node_outline20" fill="none" stroke="none" d="M300.5,280.5h24a5,5,0,0,1,5,5v8a5,5,0,0,1,-5,5h-24a5,5,0,0,1,-5,-5v-8a5,5,0,0,1,5,-5z"></path><g id="node_text20" fill="black"><text id="kity_text_135" text-rendering="inherit" font-size="12" dy=".8em" y="283.5" x="300.5">运行</text></g></g><g id="minder_node19"><g id="node_expander18" style="cursor: pointer;"><path id="kity_path_255" fill="white" stroke="gray" d="M345.5,289.5A6,6,0,1,1,333.5,289.5A6,6,0,1,1,345.5,289.5"></path><path id="kity_path_256" fill="none" stroke="gray" d="M335,289.5L344,289.5"></path></g><path id="node_outline19" fill="none" stroke="none" d="M350.5,280.5h84a5,5,0,0,1,5,5v8a5,5,0,0,1,-5,5h-84a5,5,0,0,1,-5,-5v-8a5,5,0,0,1,5,-5z"></path><g id="node_text19" fill="black"><text id="kity_text_133" text-rendering="inherit" font-size="12" dy=".8em" y="283.5" x="350.5">java -jar jar-file</text></g></g><g id="minder_node20"><g id="node_expander17" style="cursor: pointer;"><path id="kity_path_252" fill="white" stroke="gray" d="M455.5,289.5A6,6,0,1,1,443.5,289.5A6,6,0,1,1,455.5,289.5"></path><path id="kity_path_253" fill="none" stroke="gray" d="M445,289.5L454,289.5"></path></g><path id="node_outline18" fill="none" stroke="none" d="M460.5,280.5h193a5,5,0,0,1,5,5v8a5,5,0,0,1,-5,5h-193a5,5,0,0,1,-5,-5v-8a5,5,0,0,1,5,-5z"></path><g id="node_text18" fill="black"><text id="kity_text_131" text-rendering="inherit" font-size="12" dy=".8em" y="283.5" x="460.5">需要在manifest文件中指定程序入口</text></g></g><g id="minder_node21"><g id="node_expander16" style="cursor: pointer;" display="none"><path id="kity_path_249" fill="white" stroke="gray" d="M674.5,289.5A6,6,0,1,1,662.5,289.5A6,6,0,1,1,674.5,289.5"></path><path id="kity_path_250" fill="none" stroke="gray"></path></g><path id="node_outline17" fill="none" stroke="none" d="M679.5,280.5h131a5,5,0,0,1,5,5v8a5,5,0,0,1,-5,5h-131a5,5,0,0,1,-5,-5v-8a5,5,0,0,1,5,-5z"></path><g id="node_text17" fill="black"><text id="kity_text_129" text-rendering="inherit" font-size="12" dy=".8em" y="283.5" x="679.5">Main-Class: classname</text></g></g><g id="minder_node22"><g id="node_expander34" style="cursor: pointer;"><path id="kity_path_303" fill="white" stroke="gray" d="M182.5,406.5A6,6,0,1,1,170.5,406.5A6,6,0,1,1,182.5,406.5"></path><path id="kity_path_304" fill="none" stroke="gray" d="M172,406.5L181,406.5"></path></g><path id="node_outline35" fill="rgb(238, 243, 246)" stroke="rgb(115, 161, 191)" d="M186.5,393.5h119a3,3,0,0,1,3,3v20a3,3,0,0,1,-3,3h-119a3,3,0,0,1,-3,-3v-20a3,3,0,0,1,3,-3z" stroke-width="1"></path><g id="node_text35" fill="black"><text id="kity_text_165" text-rendering="inherit" font-size="14" dy=".8em" y="399.5" x="203.5">Manifest文件</text></g></g><g id="minder_node23"><g id="node_expander23" style="cursor: pointer;"><path id="kity_path_270" fill="white" stroke="gray" d="M324.5,335.5A6,6,0,1,1,312.5,335.5A6,6,0,1,1,324.5,335.5"></path><path id="kity_path_271" fill="none" stroke="gray" d="M314,335.5L323,335.5"></path></g><path id="node_outline24" fill="none" stroke="none" d="M329.5,326.5h193a5,5,0,0,1,5,5v8a5,5,0,0,1,-5,5h-193a5,5,0,0,1,-5,-5v-8a5,5,0,0,1,5,-5z"></path><g id="node_text24" fill="black"><text id="kity_text_143" text-rendering="inherit" font-size="12" dy=".8em" y="329.5" x="329.5">默认会创建META-INF/MANIFEST.MF</text></g></g><g id="minder_node24"><g id="node_expander21" style="cursor: pointer;" display="none"><path id="kity_path_264" fill="white" stroke="gray" d="M543.5,322.5A6,6,0,1,1,531.5,322.5A6,6,0,1,1,543.5,322.5"></path><path id="kity_path_265" fill="none" stroke="gray"></path></g><path id="node_outline22" fill="none" stroke="none" d="M548.5,313.5h118a5,5,0,0,1,5,5v8a5,5,0,0,1,-5,5h-118a5,5,0,0,1,-5,-5v-8a5,5,0,0,1,5,-5z"></path><g id="node_text22" fill="black"><text id="kity_text_139" text-rendering="inherit" font-size="12" dy=".8em" y="316.5" x="548.5">Manifest-Version: 1.0</text></g></g><g id="minder_node25"><g id="node_expander22" style="cursor: pointer;" display="none"><path id="kity_path_267" fill="white" stroke="gray" d="M543.5,348.5A6,6,0,1,1,531.5,348.5A6,6,0,1,1,543.5,348.5"></path><path id="kity_path_268" fill="none" stroke="gray"></path></g><path id="node_outline23" fill="none" stroke="none" d="M548.5,339.5h245a5,5,0,0,1,5,5v8a5,5,0,0,1,-5,5h-245a5,5,0,0,1,-5,-5v-8a5,5,0,0,1,5,-5z"></path><g id="node_text23" fill="black"><text id="kity_text_141" text-rendering="inherit" font-size="12" dy=".8em" y="342.5" x="548.5">Created-By: 1.7.0_06 (Oracle Corporation)</text></g></g><g id="minder_node26"><g id="node_expander24" style="cursor: pointer;" display="none"><path id="kity_path_273" fill="white" stroke="gray" d="M324.5,374.5A6,6,0,1,1,312.5,374.5A6,6,0,1,1,324.5,374.5"></path><path id="kity_path_274" fill="none" stroke="gray"></path></g><path id="node_outline25" fill="none" stroke="none" d="M329.5,365.5h205a5,5,0,0,1,5,5v8a5,5,0,0,1,-5,5h-205a5,5,0,0,1,-5,-5v-8a5,5,0,0,1,5,-5z"></path><g id="node_text25" fill="black"><text id="kity_text_145" text-rendering="inherit" font-size="12" dy=".8em" y="368.5" x="329.5">使用m选项在manifest文件中添加信息</text></g></g><g id="minder_node27"><g id="node_expander33" style="cursor: pointer;"><path id="kity_path_300" fill="white" stroke="gray" d="M324.5,477.5A6,6,0,1,1,312.5,477.5A6,6,0,1,1,324.5,477.5"></path><path id="kity_path_301" fill="none" stroke="gray" d="M314,477.5L323,477.5"></path></g><path id="node_outline34" fill="none" stroke="none" d="M329.5,468.5h24a5,5,0,0,1,5,5v8a5,5,0,0,1,-5,5h-24a5,5,0,0,1,-5,-5v-8a5,5,0,0,1,5,-5z"></path><g id="node_text34" fill="black"><text id="kity_text_163" text-rendering="inherit" font-size="12" dy=".8em" y="471.5" x="329.5">字段</text></g></g><g id="minder_node28"><g id="node_expander28" style="cursor: pointer;"><path id="kity_path_285" fill="white" stroke="gray" d="M374.5,414.5A6,6,0,1,1,362.5,414.5A6,6,0,1,1,374.5,414.5"></path><path id="kity_path_286" fill="none" stroke="gray" d="M364,414.5L373,414.5"></path></g><path id="node_outline29" fill="none" stroke="none" d="M379.5,405.5h63a5,5,0,0,1,5,5v8a5,5,0,0,1,-5,5h-63a5,5,0,0,1,-5,-5v-8a5,5,0,0,1,5,-5z"></path><g id="node_text29" fill="black"><text id="kity_text_153" text-rendering="inherit" font-size="12" dy=".8em" y="408.5" x="379.5">Main-Class</text></g></g><g id="minder_node29"><g id="node_expander25" style="cursor: pointer;" display="none"><path id="kity_path_276" fill="white" stroke="gray" d="M463.5,401.5A6,6,0,1,1,451.5,401.5A6,6,0,1,1,463.5,401.5"></path><path id="kity_path_277" fill="none" stroke="gray"></path></g><path id="node_outline26" fill="none" stroke="none" d="M468.5,392.5h126a5,5,0,0,1,5,5v8a5,5,0,0,1,-5,5h-126a5,5,0,0,1,-5,-5v-8a5,5,0,0,1,5,-5z"></path><g id="node_text26" fill="black"><text id="kity_text_147" text-rendering="inherit" font-size="12" dy=".8em" y="395.5" x="468.5">指定可执行jar入口class</text></g></g><g id="minder_node30"><g id="node_expander27" style="cursor: pointer;"><path id="kity_path_282" fill="white" stroke="gray" d="M463.5,427.5A6,6,0,1,1,451.5,427.5A6,6,0,1,1,463.5,427.5"></path><path id="kity_path_283" fill="none" stroke="gray" d="M453,427.5L462,427.5"></path></g><path id="node_outline28" fill="none" stroke="none" d="M468.5,418.5h191a5,5,0,0,1,5,5v8a5,5,0,0,1,-5,5h-191a5,5,0,0,1,-5,-5v-8a5,5,0,0,1,5,-5z"></path><g id="node_text28" fill="black"><text id="kity_text_151" text-rendering="inherit" font-size="12" dy=".8em" y="421.5" x="468.5">使用e选项可以方便的指定入口class</text></g></g><g id="minder_node31"><g id="node_expander26" style="cursor: pointer;" display="none"><path id="kity_path_279" fill="white" stroke="gray" d="M680.5,427.5A6,6,0,1,1,668.5,427.5A6,6,0,1,1,680.5,427.5"></path><path id="kity_path_280" fill="none" stroke="gray"></path></g><path id="node_outline27" fill="none" stroke="none" d="M685.5,418.5h229a5,5,0,0,1,5,5v8a5,5,0,0,1,-5,5h-229a5,5,0,0,1,-5,-5v-8a5,5,0,0,1,5,-5z"></path><g id="node_text27" fill="black"><text id="kity_text_149" text-rendering="inherit" font-size="12" dy=".8em" y="421.5" x="685.5">jar cfe Main.jar foo.Main foo/Main.class</text></g></g><g id="minder_node32"><g id="node_expander31" style="cursor: pointer;"><path id="kity_path_294" fill="white" stroke="gray" d="M374.5,453.5A6,6,0,1,1,362.5,453.5A6,6,0,1,1,374.5,453.5"></path><path id="kity_path_295" fill="none" stroke="gray" d="M364,453.5L373,453.5"></path></g><path id="node_outline32" fill="none" stroke="none" d="M379.5,444.5h60a5,5,0,0,1,5,5v8a5,5,0,0,1,-5,5h-60a5,5,0,0,1,-5,-5v-8a5,5,0,0,1,5,-5z"></path><g id="node_text32" fill="black"><text id="kity_text_159" text-rendering="inherit" font-size="12" dy=".8em" y="447.5" x="379.5">Class-Path</text></g></g><g id="minder_node33"><g id="node_expander30" style="cursor: pointer;"><path id="kity_path_291" fill="white" stroke="gray" d="M460.5,453.5A6,6,0,1,1,448.5,453.5A6,6,0,1,1,460.5,453.5"></path><path id="kity_path_292" fill="none" stroke="gray" d="M450,453.5L459,453.5"></path></g><path id="node_outline31" fill="none" stroke="none" d="M465.5,444.5h160a5,5,0,0,1,5,5v8a5,5,0,0,1,-5,5h-160a5,5,0,0,1,-5,-5v-8a5,5,0,0,1,5,-5z"></path><g id="node_text31" fill="black"><text id="kity_text_157" text-rendering="inherit" font-size="12" dy=".8em" y="447.5" x="465.5">指定其他jar作为这个jar的依赖</text></g></g><g id="minder_node34"><g id="node_expander29" style="cursor: pointer;" display="none"><path id="kity_path_288" fill="white" stroke="gray" d="M646.5,453.5A6,6,0,1,1,634.5,453.5A6,6,0,1,1,646.5,453.5"></path><path id="kity_path_289" fill="none" stroke="gray"></path></g><path id="node_outline30" fill="none" stroke="none" d="M651.5,444.5h123a5,5,0,0,1,5,5v8a5,5,0,0,1,-5,5h-123a5,5,0,0,1,-5,-5v-8a5,5,0,0,1,5,-5z"></path><g id="node_text30" fill="black"><text id="kity_text_155" text-rendering="inherit" font-size="12" dy=".8em" y="447.5" x="651.5">Class-Path: MyUtils.jar</text></g></g><g id="minder_node35"><g id="node_expander32" style="cursor: pointer;" display="none"><path id="kity_path_297" fill="white" stroke="gray" d="M374.5,515.5A6,6,0,1,1,362.5,515.5A6,6,0,1,1,374.5,515.5"></path><path id="kity_path_298" fill="none" stroke="gray" d="M364,515.5L373,515.5"></path></g><path id="node_outline33" fill="none" stroke="none" d="M379.5,506.5h72a5,5,0,0,1,5,5v8a5,5,0,0,1,-5,5h-72a5,5,0,0,1,-5,-5v-8a5,5,0,0,1,5,-5z" stroke-width="3"></path><g id="node_text33" fill="black"><text id="kity_text_161" text-rendering="inherit" font-size="12" dy=".8em" y="509.5" x="379.5">版本相关字段</text></g></g><g id="minder_node37"><g id="node_expander36" style="cursor: pointer;"><path id="kity_path_319" fill="white" stroke="gray" d="M374.5,484.5A6,6,0,1,1,362.5,484.5A6,6,0,1,1,374.5,484.5"></path><path id="kity_path_320" fill="none" stroke="gray" d="M364,484.5L373,484.5"></path></g><path id="node_outline37" fill="none" stroke="none" d="M379.5,470.5h69a5,5,0,0,1,5,5v18a5,5,0,0,1,-5,5h-69a5,5,0,0,1,-5,-5v-18a5,5,0,0,1,5,-5z" stroke-width="3"></path><g id="node_text37" fill="black"><text id="kity_text_316" text-rendering="inherit" font-size="12" dy=".8em" y="478.5" x="379.5">Sealed</text></g><a id="kity_a_329" xmlns:xlink="http://www.w3.org/1999/xlink" xlink:href="http://blog.csdn.net/technerd/article/details/8945587" target="_blank" xlink:title="很好的教程(http://blog.csdn.net/technerd/article/details/8945587)" style="cursor: pointer;"><path id="kity_path_331" fill="rgba(255, 255, 255, 0)" stroke="none" d="M428.5,473.5h16a4,4,0,0,1,4,4v14a4,4,0,0,1,-4,4h-16a4,4,0,0,1,-4,-4v-14a4,4,0,0,1,4,-4z"></path><path id="kity_path_330" fill="#666" stroke="none" d="M443.114,489.724h-1.278c-1.668,0,-3.07,-1.07,-3.599,-2.556h4.877c0.707,0,1.278,-0.571,1.278,-1.278V483.334c0,-0.707,-0.571,-1.278,-1.278,-1.278h-4.877C438.766,480.571,440.168,479.5,441.836,479.5h1.278c2.116,0,3.834,1.716,3.834,3.834V485.89C446.948,488.008,445.23,489.724,443.114,489.724zM431.612,484.612c0,-0.707,0.573,-1.278,1.278,-1.278h7.668c0.707,0,1.278,0.571,1.278,1.278S441.265,485.89,440.558,485.89H432.89C432.185,485.89,431.612,485.319,431.612,484.612zM429.056,483.334V485.89c0,0.707,0.573,1.278,1.278,1.278h4.877c-0.528,1.486,-1.932,2.556,-3.599,2.556H430.334C428.216,489.724,426.5,488.008,426.5,485.89V483.334C426.5,481.216,428.216,479.5,430.334,479.5h1.278c1.667,0,3.071,1.071,3.599,2.556H430.334C429.629,482.056,429.056,482.627,429.056,483.334z"></path></a></g><g id="minder_node38"><g id="node_expander37" style="cursor: pointer;" display="none"><path id="kity_path_327" fill="white" stroke="gray" d="M469.5,484.5A6,6,0,1,1,457.5,484.5A6,6,0,1,1,469.5,484.5"></path><path id="kity_path_328" fill="none" stroke="gray"></path></g><path id="node_outline38" fill="none" stroke="none" d="M474.5,475.5h385a5,5,0,0,1,5,5v8a5,5,0,0,1,-5,5h-385a5,5,0,0,1,-5,-5v-8a5,5,0,0,1,5,-5z" stroke-width="3"></path><g id="node_text38" fill="black"><text id="kity_text_324" text-rendering="inherit" font-size="12" dy=".8em" y="478.5" x="474.5">指定JVM密封这个package，保证这个包下的class都来自同一个jar文件</text></g></g><g id="minder_node39"><g id="node_expander38" style="cursor: pointer;" display="none"><path id="kity_path_338" fill="white" stroke="gray" d="M374.5,541.5A6,6,0,1,1,362.5,541.5A6,6,0,1,1,374.5,541.5"></path><path id="kity_path_339" fill="none" stroke="gray"></path></g><path id="node_outline39" fill="none" stroke="none" d="M379.5,532.5h72a5,5,0,0,1,5,5v8a5,5,0,0,1,-5,5h-72a5,5,0,0,1,-5,-5v-8a5,5,0,0,1,5,-5z" stroke-width="3"></path><g id="node_text39" fill="black"><text id="kity_text_335" text-rendering="inherit" font-size="12" dy=".8em" y="535.5" x="379.5">安全相关字段</text></g></g><g id="minder_node40"><g id="node_expander39" style="cursor: pointer;" display="none"><path id="kity_path_346" fill="white" stroke="gray" d="M182.5,579.5A6,6,0,1,1,170.5,579.5A6,6,0,1,1,182.5,579.5"></path><path id="kity_path_347" fill="none" stroke="gray"></path></g><path id="node_outline40" fill="rgb(238, 243, 246)" stroke="rgb(115, 161, 191)" d="M186.5,566.5h149a3,3,0,0,1,3,3v20a3,3,0,0,1,-3,3h-149a3,3,0,0,1,-3,-3v-20a3,3,0,0,1,3,-3z" stroke-width="1"></path><g id="node_text40" fill="black"><text id="kity_text_343" text-rendering="inherit" font-size="14" dy=".8em" y="572.5" x="203.5">对jar文件进行签名</text></g></g></g></g></svg>