<svg id="kity_svg_6" xmlns="http://www.w3.org/2000/svg" xmlns:xlink="http://www.w3.org/1999/xlink" version="1.1" width="1036" height="422" style="display: inline; background: rgb(251, 251, 251);" viewBox="0 0 1036 422"><defs id="kity_defs_7"><linearGradient id="kity_linearGradient_17" x1="0" y1="0" x2="0" y2="1"><stop id="kity_stop_18" offset="0" stop-color="rgb(255, 255, 255)"></stop><stop id="kity_stop_19" offset="1" stop-color="rgb(204, 204, 204)"></stop></linearGradient><marker id="kity_marker_2" orient="auto" refX="6" refY="0" viewBox="-7 -7 14 14" markerWidth="7" markerHeight="7" markerUnits="userSpaceOnUse"><path id="kity_path_3" fill="rgb(115, 161, 191)" stroke="none" d="M6,0A6,6,0,1,1,-6,0A6,6,0,1,1,6,0"></path></marker></defs><g id="kity_g_8"><g id="minder1" text-rendering="optimize-speed"><g id="minder_connect_group1"><path id="kity_path_31" fill="none" stroke="rgb(115, 161, 191)" stroke-width="1" d="M40.5,217.5A42,0,0,0,1,82.5,217.5"></path><path id="kity_path_261" fill="none" stroke="rgb(115, 161, 191)" stroke-width="1" d="M254.5,42.5C262.5,42.5,262.5,29.5,270.5,29.5"></path><path id="kity_path_262" fill="none" stroke="rgb(115, 161, 191)" stroke-width="1" d="M254.5,42.5C262.5,42.5,262.5,55.5,270.5,55.5"></path><path id="kity_path_263" fill="none" stroke="rgb(115, 161, 191)" stroke-width="1" d="M180.5,217.5C188.5,217.5,188.5,42.5,196.5,42.5"></path><path id="kity_path_264" fill="none" stroke="rgb(115, 161, 191)" stroke-width="1" d="M338.5,94.5C346.5,94.5,346.5,81.5,354.5,81.5"></path><path id="kity_path_265" fill="none" stroke="rgb(115, 161, 191)" stroke-width="1" d="M338.5,94.5C346.5,94.5,346.5,107.5,354.5,107.5"></path><path id="kity_path_266" fill="none" stroke="rgb(115, 161, 191)" stroke-width="1" d="M180.5,217.5C188.5,217.5,188.5,94.5,196.5,94.5"></path><path id="kity_path_267" fill="none" stroke="rgb(115, 161, 191)" stroke-width="1" d="M424.5,146.5C432.5,146.5,432.5,133.5,440.5,133.5"></path><path id="kity_path_268" fill="none" stroke="rgb(115, 161, 191)" stroke-width="1" d="M424.5,146.5C432.5,146.5,432.5,159.5,440.5,159.5"></path><path id="kity_path_269" fill="none" stroke="rgb(115, 161, 191)" stroke-width="1" d="M326.5,146.5C334.5,146.5,334.5,146.5,342.5,146.5"></path><path id="kity_path_270" fill="none" stroke="rgb(115, 161, 191)" stroke-width="1" d="M180.5,217.5C188.5,217.5,188.5,146.5,196.5,146.5"></path><path id="kity_path_271" fill="none" stroke="rgb(115, 161, 191)" stroke-width="1" d="M446.5,185.5C454.5,185.5,454.5,185.5,462.5,185.5"></path><path id="kity_path_272" fill="none" stroke="rgb(115, 161, 191)" stroke-width="1" d="M180.5,217.5C188.5,217.5,188.5,185.5,196.5,185.5"></path><path id="kity_path_273" fill="none" stroke="rgb(115, 161, 191)" stroke-width="1" d="M180.5,217.5C188.5,217.5,188.5,211.5,196.5,211.5"></path><path id="kity_path_274" fill="none" stroke="rgb(115, 161, 191)" stroke-width="1" d="M390.5,263.5C398.5,263.5,398.5,237.5,406.5,237.5"></path><path id="kity_path_275" fill="none" stroke="rgb(115, 161, 191)" stroke-width="1" d="M390.5,263.5C398.5,263.5,398.5,263.5,406.5,263.5"></path><path id="kity_path_276" fill="none" stroke="rgb(115, 161, 191)" stroke-width="1" d="M390.5,263.5C398.5,263.5,398.5,289.5,406.5,289.5"></path><path id="kity_path_277" fill="none" stroke="rgb(115, 161, 191)" stroke-width="1" d="M180.5,217.5C188.5,217.5,188.5,263.5,196.5,263.5"></path><path id="kity_path_278" fill="none" stroke="rgb(115, 161, 191)" stroke-width="1" d="M180.5,217.5C188.5,217.5,188.5,315.5,196.5,315.5"></path><path id="kity_path_279" fill="none" stroke="rgb(115, 161, 191)" stroke-width="1" d="M180.5,217.5C188.5,217.5,188.5,341.5,196.5,341.5"></path><path id="kity_path_280" fill="none" stroke="rgb(115, 161, 191)" stroke-width="1" d="M254.5,367.5C262.5,367.5,262.5,367.5,270.5,367.5"></path><path id="kity_path_281" fill="none" stroke="rgb(115, 161, 191)" stroke-width="1" d="M180.5,217.5C188.5,217.5,188.5,367.5,196.5,367.5"></path><path id="kity_path_282" fill="none" stroke="rgb(115, 161, 191)" stroke-width="1" d="M266.5,393.5C274.5,393.5,274.5,393.5,282.5,393.5"></path><path id="kity_path_283" fill="none" stroke="rgb(115, 161, 191)" stroke-width="1" d="M180.5,217.5C188.5,217.5,188.5,393.5,196.5,393.5"></path></g><g id="minder_node1"><path id="node_outline1" fill="rgb(115, 161, 191)" stroke="rgb(115, 161, 191)" d="M25.5,119.5h30a5,5,0,0,1,5,5v186a5,5,0,0,1,-5,5h-30a5,5,0,0,1,-5,-5v-186a5,5,0,0,1,5,-5z" stroke-width="3"></path><g id="node_text1" fill="white"><text id="kity_text_22" text-rendering="inherit" font-size="16" dy=".8em" y="125.5" x="32.5">大</text><text id="kity_text_231" text-rendering="inherit" font-size="16" dy=".8em" y="149.5" x="32.5">型</text><text id="kity_text_232" text-rendering="inherit" font-size="16" dy=".8em" y="173.5" x="32.5">网</text><text id="kity_text_233" text-rendering="inherit" font-size="16" dy=".8em" y="197.5" x="32.5">站</text><text id="kity_text_234" text-rendering="inherit" font-size="16" dy=".8em" y="221.5" x="32.5">技</text><text id="kity_text_235" text-rendering="inherit" font-size="16" dy=".8em" y="245.5" x="32.5">术</text><text id="kity_text_236" text-rendering="inherit" font-size="16" dy=".8em" y="269.5" x="32.5">架</text><text id="kity_text_237" text-rendering="inherit" font-size="16" dy=".8em" y="293.5" x="32.5">构</text></g></g><g id="kity_g_14" display="none"><path id="kity_path_15" fill="rgba(0, 92, 153, 0.5)" stroke="none" d="M734.5,316.5h58v4h-58z"></path><path id="kity_path_16" fill="none" stroke="rgb(0, 76, 128)" d="M734.5,320.5L792.5,320.5" stroke-width="1"></path></g><g id="minder_node2" opacity="1"><g id="node_expander13" style="cursor: pointer;"><path id="kity_path_132" fill="white" stroke="gray" d="M83.5,217.5A6,6,0,1,1,71.5,217.5A6,6,0,1,1,83.5,217.5"></path><path id="kity_path_133" fill="none" stroke="gray" d="M73,217.5L82,217.5"></path></g><path id="node_outline14" fill="rgb(238, 243, 246)" stroke="rgb(115, 161, 191)" d="M87.5,204.5h90a3,3,0,0,1,3,3v20a3,3,0,0,1,-3,3h-90a3,3,0,0,1,-3,-3v-20a3,3,0,0,1,3,-3z" stroke-width="1"></path><g id="node_text14" fill="black"><text id="kity_text_81" text-rendering="inherit" font-size="14" dy=".8em" y="210.5" x="104.5">发展历程</text></g></g><g id="kity_g_12" display="none"><path id="kity_path_13" fill="none" stroke="rgb(66, 94, 112)" d="M25.5,119.5h30a5,5,0,0,1,5,5v186a5,5,0,0,1,-5,5h-30a5,5,0,0,1,-5,-5v-186a5,5,0,0,1,5,-5z" stroke-width="5"></path></g><g id="minder_node4"><g id="node_expander1" style="cursor: pointer;" display="none"><path id="kity_path_96" fill="white" stroke="gray" d="M270.5,29.5A6,6,0,1,1,258.5,29.5A6,6,0,1,1,270.5,29.5"></path><path id="kity_path_97" fill="none" stroke="gray"></path></g><path id="node_outline2" fill="none" stroke="none" d="M275.5,20.5h48a5,5,0,0,1,5,5v8a5,5,0,0,1,-5,5h-48a5,5,0,0,1,-5,-5v-8a5,5,0,0,1,5,-5z"></path><g id="node_text2" fill="black"><text id="kity_text_57" text-rendering="inherit" font-size="12" dy=".8em" y="23.5" x="275.5">单服务器</text></g></g><g id="minder_node5"><g id="node_expander2" style="cursor: pointer;" display="none"><path id="kity_path_99" fill="white" stroke="gray" d="M270.5,55.5A6,6,0,1,1,258.5,55.5A6,6,0,1,1,270.5,55.5"></path><path id="kity_path_100" fill="none" stroke="gray"></path></g><path id="node_outline3" fill="none" stroke="none" d="M275.5,46.5h228a5,5,0,0,1,5,5v8a5,5,0,0,1,-5,5h-228a5,5,0,0,1,-5,-5v-8a5,5,0,0,1,5,-5z"></path><g id="node_text3" fill="black"><text id="kity_text_59" text-rendering="inherit" font-size="12" dy=".8em" y="49.5" x="275.5">应用程序，数据库，文件都在一台服务器上</text></g></g><g id="minder_node3"><g id="node_expander3" style="cursor: pointer;"><path id="kity_path_102" fill="white" stroke="gray" d="M196.5,42.5A6,6,0,1,1,184.5,42.5A6,6,0,1,1,196.5,42.5"></path><path id="kity_path_103" fill="none" stroke="gray" d="M186,42.5L195,42.5"></path></g><path id="node_outline4" fill="none" stroke="none" d="M201.5,33.5h48a5,5,0,0,1,5,5v8a5,5,0,0,1,-5,5h-48a5,5,0,0,1,-5,-5v-8a5,5,0,0,1,5,-5z"></path><g id="node_text4" fill="black"><text id="kity_text_61" text-rendering="inherit" font-size="12" dy=".8em" y="36.5" x="201.5">初始阶段</text></g></g><g id="minder_node7"><g id="node_expander4" style="cursor: pointer;" display="none"><path id="kity_path_105" fill="white" stroke="gray" d="M354.5,81.5A6,6,0,1,1,342.5,81.5A6,6,0,1,1,354.5,81.5"></path><path id="kity_path_106" fill="none" stroke="gray"></path></g><path id="node_outline5" fill="none" stroke="none" d="M359.5,72.5h312a5,5,0,0,1,5,5v8a5,5,0,0,1,-5,5h-312a5,5,0,0,1,-5,-5v-8a5,5,0,0,1,5,-5z"></path><g id="node_text5" fill="black"><text id="kity_text_63" text-rendering="inherit" font-size="12" dy=".8em" y="75.5" x="359.5">分为三台服务器，应用服务器，文件服务器，数据库服务器</text></g></g><g id="minder_node8"><g id="node_expander5" style="cursor: pointer;" display="none"><path id="kity_path_108" fill="white" stroke="gray" d="M354.5,107.5A6,6,0,1,1,342.5,107.5A6,6,0,1,1,354.5,107.5"></path><path id="kity_path_109" fill="none" stroke="gray"></path></g><path id="node_outline6" fill="none" stroke="none" d="M359.5,98.5h192a5,5,0,0,1,5,5v8a5,5,0,0,1,-5,5h-192a5,5,0,0,1,-5,-5v-8a5,5,0,0,1,5,-5z"></path><g id="node_text6" fill="black"><text id="kity_text_65" text-rendering="inherit" font-size="12" dy=".8em" y="101.5" x="359.5">三台服务器对于硬件的要求各不一样</text></g></g><g id="minder_node6"><g id="node_expander6" style="cursor: pointer;"><path id="kity_path_111" fill="white" stroke="gray" d="M196.5,94.5A6,6,0,1,1,184.5,94.5A6,6,0,1,1,196.5,94.5"></path><path id="kity_path_112" fill="none" stroke="gray" d="M186,94.5L195,94.5"></path></g><path id="node_outline7" fill="none" stroke="none" d="M201.5,85.5h132a5,5,0,0,1,5,5v8a5,5,0,0,1,-5,5h-132a5,5,0,0,1,-5,-5v-8a5,5,0,0,1,5,-5z"></path><g id="node_text7" fill="black"><text id="kity_text_67" text-rendering="inherit" font-size="12" dy=".8em" y="88.5" x="201.5">应用服务和数据服务分离</text></g></g><g id="minder_node11"><g id="node_expander7" style="cursor: pointer;" display="none"><path id="kity_path_114" fill="white" stroke="gray" d="M440.5,133.5A6,6,0,1,1,428.5,133.5A6,6,0,1,1,440.5,133.5"></path><path id="kity_path_115" fill="none" stroke="gray"></path></g><path id="node_outline8" fill="none" stroke="none" d="M445.5,124.5h192a5,5,0,0,1,5,5v8a5,5,0,0,1,-5,5h-192a5,5,0,0,1,-5,-5v-8a5,5,0,0,1,5,-5z"></path><g id="node_text8" fill="black"><text id="kity_text_69" text-rendering="inherit" font-size="12" dy=".8em" y="127.5" x="445.5">缓存在本地应用服务器上的本地缓存</text></g></g><g id="minder_node12"><g id="node_expander8" style="cursor: pointer;" display="none"><path id="kity_path_117" fill="white" stroke="gray" d="M440.5,159.5A6,6,0,1,1,428.5,159.5A6,6,0,1,1,440.5,159.5"></path><path id="kity_path_118" fill="none" stroke="gray"></path></g><path id="node_outline9" fill="none" stroke="none" d="M445.5,150.5h252a5,5,0,0,1,5,5v8a5,5,0,0,1,-5,5h-252a5,5,0,0,1,-5,-5v-8a5,5,0,0,1,5,-5z"></path><g id="node_text9" fill="black"><text id="kity_text_71" text-rendering="inherit" font-size="12" dy=".8em" y="153.5" x="445.5">缓存在专门的分布式缓存服务器上的的远程缓存</text></g></g><g id="minder_node10"><g id="node_expander9" style="cursor: pointer;"><path id="kity_path_120" fill="white" stroke="gray" d="M342.5,146.5A6,6,0,1,1,330.5,146.5A6,6,0,1,1,342.5,146.5"></path><path id="kity_path_121" fill="none" stroke="gray" d="M332,146.5L341,146.5"></path></g><path id="node_outline10" fill="none" stroke="none" d="M347.5,137.5h72a5,5,0,0,1,5,5v8a5,5,0,0,1,-5,5h-72a5,5,0,0,1,-5,-5v-8a5,5,0,0,1,5,-5z"></path><g id="node_text10" fill="black"><text id="kity_text_73" text-rendering="inherit" font-size="12" dy=".8em" y="140.5" x="347.5">缓存分为两种</text></g></g><g id="minder_node9"><g id="node_expander10" style="cursor: pointer;"><path id="kity_path_123" fill="white" stroke="gray" d="M196.5,146.5A6,6,0,1,1,184.5,146.5A6,6,0,1,1,196.5,146.5"></path><path id="kity_path_124" fill="none" stroke="gray" d="M186,146.5L195,146.5"></path></g><path id="node_outline11" fill="none" stroke="none" d="M201.5,137.5h120a5,5,0,0,1,5,5v8a5,5,0,0,1,-5,5h-120a5,5,0,0,1,-5,-5v-8a5,5,0,0,1,5,-5z"></path><g id="node_text11" fill="black"><text id="kity_text_75" text-rendering="inherit" font-size="12" dy=".8em" y="140.5" x="201.5">使用缓存改善网站性能</text></g></g><g id="minder_node14"><g id="node_expander11" style="cursor: pointer;" display="none"><path id="kity_path_126" fill="white" stroke="gray" d="M462.5,185.5A6,6,0,1,1,450.5,185.5A6,6,0,1,1,462.5,185.5"></path><path id="kity_path_127" fill="none" stroke="gray"></path></g><path id="node_outline12" fill="none" stroke="none" d="M467.5,176.5h324a5,5,0,0,1,5,5v8a5,5,0,0,1,-5,5h-324a5,5,0,0,1,-5,-5v-8a5,5,0,0,1,5,-5z" stroke-width="3"></path><g id="node_text12" fill="black"><text id="kity_text_77" text-rendering="inherit" font-size="12" dy=".8em" y="179.5" x="467.5">通过负载均衡调度服务器，分发访问到集群中的一台服务器上</text></g></g><g id="minder_node13"><g id="node_expander12" style="cursor: pointer;"><path id="kity_path_129" fill="white" stroke="gray" d="M196.5,185.5A6,6,0,1,1,184.5,185.5A6,6,0,1,1,196.5,185.5"></path><path id="kity_path_130" fill="none" stroke="gray" d="M186,185.5L195,185.5"></path></g><path id="node_outline13" fill="none" stroke="none" d="M201.5,176.5h240a5,5,0,0,1,5,5v8a5,5,0,0,1,-5,5h-240a5,5,0,0,1,-5,-5v-8a5,5,0,0,1,5,-5z" stroke-width="3"></path><g id="node_text13" fill="black"><text id="kity_text_79" text-rendering="inherit" font-size="12" dy=".8em" y="179.5" x="201.5">使用应用服务器集群改善网站的并发处理能力</text></g></g><g id="minder_node15"><g id="node_expander14" style="cursor: pointer;" display="none"><path id="kity_path_140" fill="white" stroke="gray" d="M196.5,211.5A6,6,0,1,1,184.5,211.5A6,6,0,1,1,196.5,211.5"></path><path id="kity_path_141" fill="none" stroke="gray"></path></g><path id="node_outline15" fill="none" stroke="none" d="M201.5,202.5h84a5,5,0,0,1,5,5v8a5,5,0,0,1,-5,5h-84a5,5,0,0,1,-5,-5v-8a5,5,0,0,1,5,-5z" stroke-width="3"></path><g id="node_text15" fill="black"><text id="kity_text_137" text-rendering="inherit" font-size="12" dy=".8em" y="205.5" x="201.5">数据库读写分离</text></g></g><g id="minder_node17"><g id="node_expander16" style="cursor: pointer;" display="none"><path id="kity_path_156" fill="white" stroke="gray" d="M406.5,237.5A6,6,0,1,1,394.5,237.5A6,6,0,1,1,406.5,237.5"></path><path id="kity_path_157" fill="none" stroke="gray" d="M396,237.5L405,237.5"></path></g><path id="node_outline17" fill="none" stroke="none" d="M411.5,228.5h196a5,5,0,0,1,5,5v8a5,5,0,0,1,-5,5h-196a5,5,0,0,1,-5,-5v-8a5,5,0,0,1,5,-5z" stroke-width="3"></path><g id="node_text17" fill="black"><text id="kity_text_153" text-rendering="inherit" font-size="12" dy=".8em" y="231.5" x="411.5">CDN和反向代理的基本原理都是缓存</text></g></g><g id="minder_node18" opacity="1"><g id="node_expander17" style="cursor: pointer;" display="none"><path id="kity_path_164" fill="white" stroke="gray" d="M406.5,263.5A6,6,0,1,1,394.5,263.5A6,6,0,1,1,406.5,263.5"></path><path id="kity_path_165" fill="none" stroke="gray"></path></g><path id="node_outline18" fill="none" stroke="none" d="M411.5,254.5h436a5,5,0,0,1,5,5v8a5,5,0,0,1,-5,5h-436a5,5,0,0,1,-5,-5v-8a5,5,0,0,1,5,-5z" stroke-width="3"></path><g id="node_text18" fill="black"><text id="kity_text_161" text-rendering="inherit" font-size="12" dy=".8em" y="257.5" x="411.5">CDN部署在网络提供商的机房，用户请求时，可以从距离自己最近的机房获取数据</text></g></g><g id="minder_node20"><g id="node_expander19" style="cursor: pointer;" display="none"><path id="kity_path_180" fill="white" stroke="gray" d="M406.5,289.5A6,6,0,1,1,394.5,289.5A6,6,0,1,1,406.5,289.5"></path><path id="kity_path_181" fill="none" stroke="gray"></path></g><path id="node_outline20" fill="none" stroke="none" d="M411.5,280.5h600a5,5,0,0,1,5,5v8a5,5,0,0,1,-5,5h-600a5,5,0,0,1,-5,-5v-8a5,5,0,0,1,5,-5z" stroke-width="3"></path><g id="node_text20" fill="black"><text id="kity_text_177" text-rendering="inherit" font-size="12" dy=".8em" y="283.5" x="411.5">反向代理部署在网站的中心机房，当用户请求到达后，如果反向代理服务器中缓存这用户请求的资源，就直接返回</text></g></g><g id="minder_node16"><g id="node_expander15" style="cursor: pointer;"><path id="kity_path_148" fill="white" stroke="gray" d="M196.5,263.5A6,6,0,1,1,184.5,263.5A6,6,0,1,1,196.5,263.5"></path><path id="kity_path_149" fill="none" stroke="gray" d="M186,263.5L195,263.5"></path></g><path id="node_outline16" fill="none" stroke="none" d="M201.5,254.5h184a5,5,0,0,1,5,5v8a5,5,0,0,1,-5,5h-184a5,5,0,0,1,-5,-5v-8a5,5,0,0,1,5,-5z" stroke-width="3"></path><g id="node_text16" fill="black"><text id="kity_text_145" text-rendering="inherit" font-size="12" dy=".8em" y="257.5" x="201.5">使用反向代理和CDN加速网站响应</text></g></g><g id="minder_node21"><g id="node_expander20" style="cursor: pointer;" display="none"><path id="kity_path_189" fill="white" stroke="gray" d="M196.5,315.5A6,6,0,1,1,184.5,315.5A6,6,0,1,1,196.5,315.5"></path><path id="kity_path_190" fill="none" stroke="gray"></path></g><path id="node_outline21" fill="none" stroke="none" d="M201.5,306.5h192a5,5,0,0,1,5,5v8a5,5,0,0,1,-5,5h-192a5,5,0,0,1,-5,-5v-8a5,5,0,0,1,5,-5z" stroke-width="3"></path><g id="node_text21" fill="black"><text id="kity_text_186" text-rendering="inherit" font-size="12" dy=".8em" y="309.5" x="201.5">使用分布式文件系统和分布式数据库</text></g></g><g id="minder_node22"><g id="node_expander21" style="cursor: pointer;" display="none"><path id="kity_path_197" fill="white" stroke="gray" d="M196.5,341.5A6,6,0,1,1,184.5,341.5A6,6,0,1,1,196.5,341.5"></path><path id="kity_path_198" fill="none" stroke="gray"></path></g><path id="node_outline22" fill="none" stroke="none" d="M201.5,332.5h123a5,5,0,0,1,5,5v8a5,5,0,0,1,-5,5h-123a5,5,0,0,1,-5,-5v-8a5,5,0,0,1,5,-5z" stroke-width="3"></path><g id="node_text22" fill="black"><text id="kity_text_194" text-rendering="inherit" font-size="12" dy=".8em" y="335.5" x="201.5">使用NoSQL和搜索引擎</text></g></g><g id="minder_node24"><g id="node_expander23" style="cursor: pointer;" display="none"><path id="kity_path_213" fill="white" stroke="gray" d="M270.5,367.5A6,6,0,1,1,258.5,367.5A6,6,0,1,1,270.5,367.5"></path><path id="kity_path_214" fill="none" stroke="gray"></path></g><path id="node_outline24" fill="none" stroke="none" d="M275.5,358.5h372a5,5,0,0,1,5,5v8a5,5,0,0,1,-5,5h-372a5,5,0,0,1,-5,-5v-8a5,5,0,0,1,5,-5z" stroke-width="3"></path><g id="node_text24" fill="black"><text id="kity_text_210" text-rendering="inherit" font-size="12" dy=".8em" y="361.5" x="275.5">应用直接可以使用超链接建立联系，也可以使用消息队列进行数据分发</text></g></g><g id="minder_node23"><g id="node_expander22" style="cursor: pointer;"><path id="kity_path_205" fill="white" stroke="gray" d="M196.5,367.5A6,6,0,1,1,184.5,367.5A6,6,0,1,1,196.5,367.5"></path><path id="kity_path_206" fill="none" stroke="gray" d="M186,367.5L195,367.5"></path></g><path id="node_outline23" fill="none" stroke="none" d="M201.5,358.5h48a5,5,0,0,1,5,5v8a5,5,0,0,1,-5,5h-48a5,5,0,0,1,-5,-5v-8a5,5,0,0,1,5,-5z" stroke-width="3"></path><g id="node_text23" fill="black"><text id="kity_text_202" text-rendering="inherit" font-size="12" dy=".8em" y="361.5" x="201.5">业务拆分</text></g></g><g id="minder_node26"><g id="node_expander25" style="cursor: pointer;" display="none"><path id="kity_path_229" fill="white" stroke="gray" d="M282.5,393.5A6,6,0,1,1,270.5,393.5A6,6,0,1,1,282.5,393.5"></path><path id="kity_path_230" fill="none" stroke="gray"></path></g><path id="node_outline26" fill="none" stroke="none" d="M287.5,384.5h204a5,5,0,0,1,5,5v8a5,5,0,0,1,-5,5h-204a5,5,0,0,1,-5,-5v-8a5,5,0,0,1,5,-5z" stroke-width="3"></path><g id="node_text26" fill="black"><text id="kity_text_226" text-rendering="inherit" font-size="12" dy=".8em" y="387.5" x="287.5">提取公共业务，如用户管理，商品管理</text></g></g><g id="minder_node25"><g id="node_expander24" style="cursor: pointer;"><path id="kity_path_221" fill="white" stroke="gray" d="M196.5,393.5A6,6,0,1,1,184.5,393.5A6,6,0,1,1,196.5,393.5"></path><path id="kity_path_222" fill="none" stroke="gray" d="M186,393.5L195,393.5"></path></g><path id="node_outline25" fill="none" stroke="none" d="M201.5,384.5h60a5,5,0,0,1,5,5v8a5,5,0,0,1,-5,5h-60a5,5,0,0,1,-5,-5v-8a5,5,0,0,1,5,-5z" stroke-width="3"></path><g id="node_text25" fill="black"><text id="kity_text_218" text-rendering="inherit" font-size="12" dy=".8em" y="387.5" x="201.5">分布式服务</text></g></g></g></g></svg>